<mxfile host="app.diagrams.net" modified="2023-11-16T10:21:10.721Z" agent="Mozilla/5.0 (Windows NT 10.0; Win64; x64) AppleWebKit/537.36 (KHTML, like Gecko) Chrome/119.0.0.0 Safari/537.36 Edg/119.0.0.0" etag="qnjlXHpmFJ1j_B_WLviN" version="22.1.2" type="github">
  <diagram name="Страница — 1" id="AJV-fSB4lBGNFQMtYqea">
    <mxGraphModel dx="2261" dy="796" grid="1" gridSize="10" guides="1" tooltips="1" connect="1" arrows="1" fold="1" page="1" pageScale="1" pageWidth="827" pageHeight="1169" math="0" shadow="0">
      <root>
        <mxCell id="0" />
        <mxCell id="1" parent="0" />
        <mxCell id="RflPQ-M5wOlGr6fXlBsH-3" style="edgeStyle=orthogonalEdgeStyle;rounded=0;orthogonalLoop=1;jettySize=auto;html=1;entryX=0.5;entryY=0;entryDx=0;entryDy=0;" edge="1" parent="1" source="RflPQ-M5wOlGr6fXlBsH-1" target="RflPQ-M5wOlGr6fXlBsH-2">
          <mxGeometry relative="1" as="geometry" />
        </mxCell>
        <mxCell id="RflPQ-M5wOlGr6fXlBsH-1" value="Авторизация по номеру телефона" style="rounded=0;whiteSpace=wrap;html=1;" vertex="1" parent="1">
          <mxGeometry x="380" y="240" width="120" height="60" as="geometry" />
        </mxCell>
        <mxCell id="RflPQ-M5wOlGr6fXlBsH-5" style="edgeStyle=orthogonalEdgeStyle;rounded=0;orthogonalLoop=1;jettySize=auto;html=1;entryX=0.5;entryY=0;entryDx=0;entryDy=0;" edge="1" parent="1" source="RflPQ-M5wOlGr6fXlBsH-2" target="RflPQ-M5wOlGr6fXlBsH-4">
          <mxGeometry relative="1" as="geometry" />
        </mxCell>
        <mxCell id="RflPQ-M5wOlGr6fXlBsH-2" value="Главное меню" style="rounded=0;whiteSpace=wrap;html=1;" vertex="1" parent="1">
          <mxGeometry x="380" y="320" width="120" height="60" as="geometry" />
        </mxCell>
        <mxCell id="RflPQ-M5wOlGr6fXlBsH-10" style="edgeStyle=orthogonalEdgeStyle;rounded=0;orthogonalLoop=1;jettySize=auto;html=1;exitX=0;exitY=0.5;exitDx=0;exitDy=0;" edge="1" parent="1" source="RflPQ-M5wOlGr6fXlBsH-4" target="RflPQ-M5wOlGr6fXlBsH-7">
          <mxGeometry relative="1" as="geometry" />
        </mxCell>
        <mxCell id="RflPQ-M5wOlGr6fXlBsH-11" style="edgeStyle=orthogonalEdgeStyle;rounded=0;orthogonalLoop=1;jettySize=auto;html=1;exitX=0.25;exitY=1;exitDx=0;exitDy=0;" edge="1" parent="1" source="RflPQ-M5wOlGr6fXlBsH-4" target="RflPQ-M5wOlGr6fXlBsH-6">
          <mxGeometry relative="1" as="geometry" />
        </mxCell>
        <mxCell id="RflPQ-M5wOlGr6fXlBsH-12" style="edgeStyle=orthogonalEdgeStyle;rounded=0;orthogonalLoop=1;jettySize=auto;html=1;exitX=0.75;exitY=1;exitDx=0;exitDy=0;entryX=0.5;entryY=0;entryDx=0;entryDy=0;" edge="1" parent="1" source="RflPQ-M5wOlGr6fXlBsH-4" target="RflPQ-M5wOlGr6fXlBsH-8">
          <mxGeometry relative="1" as="geometry" />
        </mxCell>
        <mxCell id="RflPQ-M5wOlGr6fXlBsH-13" style="edgeStyle=orthogonalEdgeStyle;rounded=0;orthogonalLoop=1;jettySize=auto;html=1;exitX=1;exitY=0.5;exitDx=0;exitDy=0;entryX=0.5;entryY=0;entryDx=0;entryDy=0;" edge="1" parent="1" source="RflPQ-M5wOlGr6fXlBsH-4" target="RflPQ-M5wOlGr6fXlBsH-9">
          <mxGeometry relative="1" as="geometry" />
        </mxCell>
        <mxCell id="RflPQ-M5wOlGr6fXlBsH-4" value="Меню управления" style="rounded=0;whiteSpace=wrap;html=1;" vertex="1" parent="1">
          <mxGeometry x="170" y="420" width="120" height="60" as="geometry" />
        </mxCell>
        <mxCell id="RflPQ-M5wOlGr6fXlBsH-6" value="Тех. поддержка&amp;nbsp;" style="rounded=0;whiteSpace=wrap;html=1;" vertex="1" parent="1">
          <mxGeometry x="110" y="510" width="120" height="60" as="geometry" />
        </mxCell>
        <mxCell id="RflPQ-M5wOlGr6fXlBsH-7" value="Профиль" style="rounded=0;whiteSpace=wrap;html=1;" vertex="1" parent="1">
          <mxGeometry x="-20" y="510" width="120" height="60" as="geometry" />
        </mxCell>
        <mxCell id="RflPQ-M5wOlGr6fXlBsH-8" value="Баланс" style="rounded=0;whiteSpace=wrap;html=1;" vertex="1" parent="1">
          <mxGeometry x="240" y="510" width="120" height="60" as="geometry" />
        </mxCell>
        <mxCell id="RflPQ-M5wOlGr6fXlBsH-9" value="История поездок" style="rounded=0;whiteSpace=wrap;html=1;" vertex="1" parent="1">
          <mxGeometry x="374" y="510" width="120" height="60" as="geometry" />
        </mxCell>
      </root>
    </mxGraphModel>
  </diagram>
</mxfile>
